<?xml version="1.0" encoding="UTF-8"?>
<svg version="1.1" xmlns="http://www.w3.org/2000/svg" width="960" height="992">
<path d="M0 0 C3.47983363 1.48356781 6.82668415 3.20372697 10.1875 4.9375 C11.48204102 5.59202148 11.48204102 5.59202148 12.80273438 6.25976562 C18.89735997 9.35703437 24.94231564 12.54753109 30.98828125 15.73828125 C40.09180512 20.54148937 49.24258579 25.24828141 58.41015625 29.92785645 C62.89988324 32.21991117 67.38751004 34.51606929 71.875 36.8125 C72.75720215 37.26393372 73.6394043 37.71536743 74.54833984 38.18048096 C82.77253336 42.39122943 90.9768183 46.63953674 99.17529297 50.90014648 C107.81567011 55.38952096 116.46807932 59.85514001 125.125 64.3125 C125.81565552 64.66814026 126.50631104 65.02378052 127.21789551 65.39019775 C131.43898561 67.5636891 135.6603171 69.73671128 139.88171387 71.90960693 C146.17153549 75.14730829 152.46091158 78.3858747 158.75 81.625 C159.43652649 81.97857574 160.12305298 82.33215149 160.8303833 82.69644165 C171.57580424 88.23102741 182.31360497 93.78020483 193.04785156 99.33642578 C202.89376587 104.43187594 212.74886784 109.50939262 222.60552979 114.58401489 C232.20096612 119.52438712 241.79078796 124.47538578 251.375 129.4375 C262.07407681 134.9764026 272.78439903 140.4931372 283.5 146 C295.39485091 152.11289206 307.28069744 158.24270278 319.15722656 164.39111328 C328.18274411 169.06292296 337.21484011 173.7218675 346.25 178.375 C346.93656677 178.72859589 347.62313354 179.08219177 348.33050537 179.44650269 C353.22015781 181.964683 358.11005049 184.48239661 363 187 C368.58349867 189.874679 374.16689156 192.74956317 379.75 195.625 C380.43670776 195.97866638 381.12341553 196.33233276 381.83093262 196.69671631 C392.56597952 202.22596353 403.29387704 207.76888302 414.01708984 213.32104492 C420.54593581 216.70071792 427.07909887 220.07183238 433.6171875 223.43359375 C434.3475824 223.80928497 435.07797729 224.1849762 435.83050537 224.572052 C439.36091576 226.38793855 442.89184387 228.2028016 446.42382812 230.015625 C447.72800347 230.68592775 449.03204208 231.35649663 450.3359375 232.02734375 C450.9660675 232.3515329 451.59619751 232.67572205 452.24542236 233.00973511 C457.59560153 235.77186833 462.90684275 238.60508847 468.19833374 241.47801208 C470.78177028 242.87063441 473.20816892 244.06938964 476 245 C476 298.13 476 351.26 476 406 C468.41 409.96 460.82 413.92 453 418 C444.58806735 422.40625043 436.18301416 426.81821572 427.82421875 431.32421875 C412.35912933 439.65764498 396.79544784 447.77397325 381.16098022 455.78497314 C380.44141144 456.15370544 379.72184265 456.52243774 378.98046875 456.90234375 C378.27499908 457.26382507 377.56952942 457.6253064 376.84268188 457.9977417 C370.01757975 461.49800667 363.22772394 465.06281362 356.44921875 468.65234375 C353.12674867 470.41067622 349.79416335 472.14856255 346.45703125 473.87890625 C333.86959659 480.40789784 321.38798304 487.09973924 309 494 C309.86987549 494.43231934 310.73975098 494.86463867 311.63598633 495.31005859 C340.64864205 509.73667928 340.64864205 509.73667928 350.625 515.0625 C359.32733666 519.70813077 368.15487205 524.09510413 376.98632812 528.48803711 C385.31329871 532.63196102 393.59311339 536.84621576 401.80078125 541.22265625 C409.40859859 545.25891536 417.12383218 549.07833597 424.83477783 552.91226196 C432.26757762 556.60975837 439.66684339 560.3580857 447 564.25 C456.59131698 569.31208396 466.29977091 574.14988545 476 579 C476 632.46 476 685.92 476 741 C466.43 745.95 456.86 750.9 447 756 C439.82936748 759.76642659 439.82936748 759.76642659 432.6640625 763.54296875 C427.28583837 766.38076606 421.89278515 769.19000036 416.5 772 C409.53345723 775.63041948 402.57331793 779.27232198 395.625 782.9375 C387.18884305 787.38670606 378.72692038 791.78562792 370.26269531 796.18115234 C363.19705412 799.85230302 356.14425008 803.54676156 349.1015625 807.26171875 C341.92683266 811.04431441 334.73467518 814.79318759 327.54199219 818.54150391 C321.56207419 821.65924746 315.58987324 824.79108061 309.625 827.9375 C301.18884305 832.38670606 292.72692038 836.78562792 284.26269531 841.18115234 C277.95737913 844.45725499 271.66011816 847.74781958 265.375 851.0625 C253.61881791 857.26254041 241.82937765 863.39869289 230.04296875 869.54101562 C220.18682333 874.67796029 210.33226287 879.8174567 200.5 885 C188.70122129 891.2190853 176.87067039 897.37717375 165.04296875 903.54101562 C155.18682333 908.67796029 145.33226287 913.8174567 135.5 919 C123.70122129 925.2190853 111.87067039 931.37717375 100.04296875 937.54101562 C90.18682333 942.67796029 80.33226287 947.8174567 70.5 953 C58.6906071 959.22468 46.85019215 965.38986234 35.01074219 971.55712891 C33.02607502 972.59098544 31.04161709 973.62524374 29.05737305 974.65991211 C27.11979343 975.66927317 25.18117104 976.6766353 23.24145508 977.68188477 C18.78978574 979.99413532 14.36442297 982.33647083 9.98828125 984.7890625 C9.21532715 985.21678955 8.44237305 985.6445166 7.64599609 986.08520508 C6.22317619 986.87588777 4.80742743 987.67950104 3.40087891 988.4987793 C-0.96752576 990.91142422 -3.21593561 991.20642248 -8 990 C-10.59443736 988.83933529 -13.06866234 987.64227745 -15.57421875 986.31640625 C-16.2910936 985.94540802 -17.00796844 985.57440979 -17.74656677 985.19216919 C-20.06440568 983.99015521 -22.37593666 982.7765318 -24.6875 981.5625 C-26.28919004 980.72888008 -27.89124244 979.89595603 -29.49365234 979.0637207 C-34.00126993 976.71959047 -38.50144629 974.36146528 -43 972 C-44.02077637 971.46536133 -45.04155273 970.93072266 -46.09326172 970.37988281 C-49.87109094 968.40050502 -53.64461502 966.41325668 -57.4140625 964.41796875 C-63.09387446 961.4155648 -68.79808821 958.4601487 -74.5 955.5 C-82.64852811 951.2685612 -90.78576908 947.01702594 -98.90722656 942.73388672 C-108.92053264 937.45557129 -118.96200575 932.23116081 -129 927 C-140.61285836 920.94812071 -152.22219239 914.89029233 -163.80664062 908.78417969 C-173.85455392 903.49115758 -183.92877295 898.24847962 -194 893 C-205.61285836 886.94812071 -217.22219239 880.89029233 -228.80664062 874.78417969 C-238.85455392 869.49115758 -248.92877295 864.24847962 -259 859 C-270.61285836 852.94812071 -282.22219239 846.89029233 -293.80664062 840.78417969 C-303.85455392 835.49115758 -313.92877295 830.24847962 -324 825 C-335.60995082 818.94963593 -347.21679666 812.89409849 -358.79785156 806.78857422 C-366.00661461 802.99058764 -373.2317826 799.22430712 -380.45751953 795.45874023 C-386.43760765 792.34092931 -392.40996582 789.20900429 -398.375 786.0625 C-405.73562924 782.1805243 -413.11487014 778.33514361 -420.5 774.5 C-428.63829048 770.27373543 -436.76639772 766.02943421 -444.87646484 761.74926758 C-449.23429117 759.4508852 -453.59830135 757.16492853 -457.96875 754.890625 C-459.50281494 754.09217163 -459.50281494 754.09217163 -461.06787109 753.27758789 C-463.04419751 752.24965194 -465.02104994 751.22272643 -466.99853516 750.19702148 C-467.90909668 749.72337158 -468.8196582 749.24972168 -469.7578125 748.76171875 C-470.5533252 748.34881592 -471.34883789 747.93591309 -472.16845703 747.51049805 C-476.14017487 745.39176911 -480.06497591 743.18612449 -484 741 C-484 687.54 -484 634.08 -484 579 C-465.19 569.595 -465.19 569.595 -446 560 C-438.83114038 556.24105884 -438.83114038 556.24105884 -431.6796875 552.44921875 C-424.90240137 548.86667925 -418.01671884 545.49443422 -411.1529541 542.081604 C-403.93271799 538.48973221 -396.74125399 534.85698372 -389.625 531.0625 C-380.84280285 526.38075626 -371.93871665 521.95131057 -363.02886963 517.51956177 C-354.38294955 513.21708394 -345.78387093 508.84127689 -337.2565918 504.30712891 C-330.5632422 500.75040858 -323.79923011 497.34970228 -317 494 C-332.3424315 485.43192247 -347.91972802 477.36181354 -363.57446289 469.38378906 C-373.33501519 464.4075089 -383.05508803 459.36206116 -392.74291992 454.24560547 C-397.05975118 451.96581513 -401.39038946 449.71332971 -405.72460938 447.46679688 C-413.87287551 443.24199775 -421.96716627 438.94013529 -430 434.5 C-442.50650739 427.5950927 -455.25551775 421.15631022 -467.98632812 414.67773438 C-469.23999931 414.03869675 -469.23999931 414.03869675 -470.51899719 413.38674927 C-472.10372107 412.57925819 -473.68928474 411.77341249 -475.27580261 410.9694519 C-475.98618179 410.60747711 -476.69656097 410.24550232 -477.4284668 409.87255859 C-478.04827927 409.55789642 -478.66809174 409.24323425 -479.3066864 408.91903687 C-480.92591011 408.04021189 -482.46707999 407.02194667 -484 406 C-484.36914349 403.23950768 -484.36914349 403.23950768 -484.36076355 399.64730835 C-484.36332682 398.98814757 -484.3658901 398.32898679 -484.36853105 397.64985144 C-484.37349075 395.43087318 -484.35694101 393.2125684 -484.34057617 390.99365234 C-484.33973037 389.40717078 -484.34020413 387.82068803 -484.34190369 386.23420715 C-484.34276689 381.91824538 -484.32508875 377.6025321 -484.30418181 373.28662825 C-484.28546901 368.77960935 -484.28366884 364.2725852 -484.28010559 359.76553345 C-484.27076921 351.2267552 -484.24613396 342.68809174 -484.21605712 334.14936411 C-484.18256257 324.43005087 -484.16603957 314.71073224 -484.15097082 304.99137568 C-484.11958574 284.99418631 -484.06679439 264.99710038 -484 245 C-480.05945762 242.96084427 -476.11880675 240.92189839 -472.17806244 238.88313293 C-470.84216752 238.19196511 -469.50630043 237.50074352 -468.17046356 236.8094635 C-458.06037999 231.57767863 -447.94009051 226.36635128 -437.80639648 221.18041992 C-425.69074497 214.9795969 -413.58403397 208.76222717 -401.5 202.5 C-389.33809645 196.197419 -377.15120156 189.94433913 -364.95996094 183.69873047 C-354.46228016 178.32023906 -343.97263612 172.92710904 -333.5 167.5 C-322.26525475 161.67841729 -311.01112029 155.8953786 -299.75 150.125 C-287.5355593 143.86597749 -275.32471379 137.6001859 -263.125 131.3125 C-262.45470764 130.96704132 -261.78441528 130.62158264 -261.09381104 130.26565552 C-257.73559152 128.53477039 -254.3775187 126.80360092 -251.01953125 125.07226562 C-244.22205396 121.56765242 -237.42355534 118.06502134 -230.625 114.5625 C-229.60808075 114.03857162 -229.60808075 114.03857162 -228.57061768 113.50405884 C-217.14742179 107.61887361 -205.72056954 101.74081624 -194.2925415 95.86502075 C-183.69252625 90.41486213 -173.09510544 84.95969685 -162.5 79.5 C-150.4337591 73.28222163 -138.36388384 67.07154576 -126.29199219 60.86474609 C-115.69216065 55.41467777 -105.09494123 49.95956863 -94.5 44.5 C-79.59185368 36.81800212 -64.67841535 29.14632321 -49.76338196 21.47770691 C-44.2026173 18.61856157 -38.64226243 15.75862015 -33.08203125 12.8984375 C-30.65330295 11.64915394 -28.22457057 10.39987834 -25.7958374 9.15060425 C-24.23238319 8.34637965 -22.66894711 7.5421198 -21.10552979 6.73782349 C-18.94410383 5.62589438 -16.78260673 4.51410368 -14.62109375 3.40234375 C-13.97703079 3.07096405 -13.33296783 2.73958435 -12.66938782 2.39816284 C-5.40120622 -1.33978753 -5.40120622 -1.33978753 0 0 Z " fill="#DC2226" transform="translate(484,1)"/>
<path d="M0 0 C3.47983363 1.48356781 6.82668415 3.20372697 10.1875 4.9375 C11.48204102 5.59202148 11.48204102 5.59202148 12.80273438 6.25976562 C18.89735997 9.35703437 24.94231564 12.54753109 30.98828125 15.73828125 C40.09180512 20.54148937 49.24258579 25.24828141 58.41015625 29.92785645 C62.89988324 32.21991117 67.38751004 34.51606929 71.875 36.8125 C72.75720215 37.26393372 73.6394043 37.71536743 74.54833984 38.18048096 C82.77253336 42.39122943 90.9768183 46.63953674 99.17529297 50.90014648 C107.81567011 55.38952096 116.46807932 59.85514001 125.125 64.3125 C125.81565552 64.66814026 126.50631104 65.02378052 127.21789551 65.39019775 C131.43898561 67.5636891 135.6603171 69.73671128 139.88171387 71.90960693 C146.17153549 75.14730829 152.46091158 78.3858747 158.75 81.625 C159.43652649 81.97857574 160.12305298 82.33215149 160.8303833 82.69644165 C171.57580424 88.23102741 182.31360497 93.78020483 193.04785156 99.33642578 C202.89376587 104.43187594 212.74886784 109.50939262 222.60552979 114.58401489 C232.20096612 119.52438712 241.79078796 124.47538578 251.375 129.4375 C262.07407681 134.9764026 272.78439903 140.4931372 283.5 146 C295.39485091 152.11289206 307.28069744 158.24270278 319.15722656 164.39111328 C328.18274411 169.06292296 337.21484011 173.7218675 346.25 178.375 C346.93656677 178.72859589 347.62313354 179.08219177 348.33050537 179.44650269 C353.22015781 181.964683 358.11005049 184.48239661 363 187 C368.58349867 189.874679 374.16689156 192.74956317 379.75 195.625 C380.43670776 195.97866638 381.12341553 196.33233276 381.83093262 196.69671631 C392.56743357 202.22671246 403.29672325 207.77051644 414.02148438 213.32324219 C420.52565465 216.6900172 427.03383195 220.04885563 433.546875 223.3984375 C461.96641357 238.01558956 461.96641357 238.01558956 475 245 C473.611324 249.16602801 471.66991951 249.48551191 467.7890625 251.44140625 C467.15398773 251.76513718 466.51891296 252.0888681 465.86459351 252.42240906 C463.78914096 253.47807309 461.70714991 254.52011746 459.625 255.5625 C458.19085428 256.28960242 456.75726189 257.01779723 455.32421875 257.74707031 C452.49298997 259.18730199 449.65984905 260.62365111 446.82519531 262.05712891 C442.1905685 264.4054137 437.5897192 266.81525352 433 269.25 C431.53141914 270.0263617 430.06266844 270.8024022 428.59375 271.578125 C427.49353516 272.15916992 427.49353516 272.15916992 426.37109375 272.75195312 C421.75465829 275.18185614 417.12653997 277.58940921 412.5 280 C405.53344733 283.63040037 398.57331784 287.27232203 391.625 290.9375 C383.18884305 295.38670606 374.72692038 299.78562792 366.26269531 304.18115234 C359.95737913 307.45725499 353.66011816 310.74781958 347.375 314.0625 C335.61881791 320.26254041 323.82937765 326.39869289 312.04296875 332.54101562 C302.18682333 337.67796029 292.33226287 342.8174567 282.5 348 C270.70122129 354.2190853 258.87067039 360.37717375 247.04296875 366.54101562 C236.41893331 372.07817846 225.79998043 377.62425596 215.20214844 383.21142578 C207.99338539 387.00941236 200.7682174 390.77569288 193.54248047 394.54125977 C187.56239235 397.65907069 181.59003418 400.79099571 175.625 403.9375 C167.18884305 408.38670606 158.72692038 412.78562792 150.26269531 417.18115234 C143.95737913 420.45725499 137.66011816 423.74781958 131.375 427.0625 C119.61881791 433.26254041 107.82937765 439.39869289 96.04296875 445.54101562 C86.18682333 450.67796029 76.33226287 455.8174567 66.5 461 C59.59178895 464.64128821 52.67406063 468.26393996 45.75 471.875 C44.79303223 472.37410889 43.83606445 472.87321777 42.85009766 473.38745117 C37.86206803 475.98821532 32.87288507 478.58675171 27.8828125 481.18359375 C26.88338623 481.70429443 25.88395996 482.22499512 24.85424805 482.76147461 C22.89058471 483.78377677 20.92592529 484.80416824 18.96020508 485.82250977 C14.89505885 487.9344347 10.8491188 490.05747914 6.87890625 492.34375 C5.74324219 492.9934375 4.60757812 493.643125 3.4375 494.3125 C2.50808594 494.86550781 1.57867187 495.41851562 0.62109375 495.98828125 C-3.72627891 497.66632822 -7.06217192 496.41393351 -11.2253418 494.57641602 C-12.37172119 493.97498779 -13.51810059 493.37355957 -14.69921875 492.75390625 C-15.32712814 492.42739075 -15.95503754 492.10087524 -16.60197449 491.76446533 C-18.63470315 490.70500016 -20.66105442 489.63392622 -22.6875 488.5625 C-24.0993918 487.82373555 -25.5116667 487.08570283 -26.92431641 486.34838867 C-30.35620408 484.5547644 -33.7832109 482.7520737 -37.20806885 480.94506836 C-39.59919392 479.68398383 -41.99291134 478.42785891 -44.38671875 477.171875 C-47.35115375 475.6148012 -50.31297668 474.05289573 -53.2734375 472.48828125 C-59.00184133 469.4657131 -64.75171102 466.48452268 -70.5 463.5 C-78.64850885 459.26852382 -86.78576884 455.01702606 -94.90722656 450.73388672 C-104.92053264 445.45557129 -114.96200575 440.23116081 -125 435 C-136.61285836 428.94812071 -148.22219239 422.89029233 -159.80664062 416.78417969 C-169.85455392 411.49115758 -179.92877295 406.24847962 -190 401 C-201.60995082 394.94963593 -213.21679666 388.89409849 -224.79785156 382.78857422 C-232.00661461 378.99058764 -239.2317826 375.22430712 -246.45751953 371.45874023 C-252.43760765 368.34092931 -258.40996582 365.20900429 -264.375 362.0625 C-271.73562924 358.1805243 -279.11487014 354.33514361 -286.5 350.5 C-294.6484703 346.26844899 -302.78576837 342.01702631 -310.90722656 337.73388672 C-320.92053264 332.45557129 -330.96200575 327.23116081 -341 322 C-352.61285836 315.94812071 -364.22219239 309.89029233 -375.80664062 303.78417969 C-385.85455392 298.49115758 -395.92877295 293.24847962 -406 288 C-417.60558911 281.95190898 -429.20871017 275.89981997 -440.78466797 269.79516602 C-447.13758856 266.44733083 -453.50560098 263.12885402 -459.875 259.8125 C-467.95220088 255.6057499 -476.00372746 251.35881267 -484 247 C-484 246.34 -484 245.68 -484 245 C-467.85366338 236.62682507 -451.68772208 228.29288636 -435.5 220 C-424.15542623 214.18816614 -412.81726005 208.36486711 -401.5 202.5 C-389.33809645 196.197419 -377.15120156 189.94433913 -364.95996094 183.69873047 C-354.46228016 178.32023906 -343.97263612 172.92710904 -333.5 167.5 C-322.26525475 161.67841729 -311.01112029 155.8953786 -299.75 150.125 C-287.5355593 143.86597749 -275.32471379 137.6001859 -263.125 131.3125 C-262.45470764 130.96704132 -261.78441528 130.62158264 -261.09381104 130.26565552 C-257.73559152 128.53477039 -254.3775187 126.80360092 -251.01953125 125.07226562 C-244.22205396 121.56765242 -237.42355534 118.06502134 -230.625 114.5625 C-229.60808075 114.03857162 -229.60808075 114.03857162 -228.57061768 113.50405884 C-217.14742179 107.61887361 -205.72056954 101.74081624 -194.2925415 95.86502075 C-183.69252625 90.41486213 -173.09510544 84.95969685 -162.5 79.5 C-150.4337591 73.28222163 -138.36388384 67.07154576 -126.29199219 60.86474609 C-115.69216065 55.41467777 -105.09494123 49.95956863 -94.5 44.5 C-79.59185368 36.81800212 -64.67841535 29.14632321 -49.76338196 21.47770691 C-44.2026173 18.61856157 -38.64226243 15.75862015 -33.08203125 12.8984375 C-30.65330295 11.64915394 -28.22457057 10.39987834 -25.7958374 9.15060425 C-24.23238319 8.34637965 -22.66894711 7.5421198 -21.10552979 6.73782349 C-18.94410383 5.62589438 -16.78260673 4.51410368 -14.62109375 3.40234375 C-13.97703079 3.07096405 -13.33296783 2.73958435 -12.66938782 2.39816284 C-5.40120622 -1.33978753 -5.40120622 -1.33978753 0 0 Z " fill="#EF542C" transform="translate(484,1)"/>
<path d="M0 0 C6.75032223 2.25010741 6.75032223 2.25010741 9.9597168 3.90429688 C10.6787468 4.27228394 11.39777679 4.640271 12.13859558 5.01940918 C12.90110123 5.41519165 13.66360687 5.81097412 14.44921875 6.21875 C15.26131302 6.63612427 16.07340729 7.05349854 16.91011047 7.48352051 C19.5046502 8.81835947 22.096052 10.15917054 24.6875 11.5 C26.37806341 12.37016439 28.06881714 13.23995914 29.75976562 14.109375 C39.79069726 19.27355159 49.78602951 24.50360259 59.76489258 29.76757812 C65.00070184 32.52945754 70.24912182 35.26690078 75.5 38 C82.46670047 41.6301157 89.42668347 45.27232272 96.375 48.9375 C103.73562924 52.8194757 111.11487014 56.66485639 118.5 60.5 C126.6484703 64.73155101 134.78576837 68.98297369 142.90722656 73.26611328 C152.92053264 78.54442871 162.96200575 83.76883919 173 89 C184.60995082 95.05036407 196.21679666 101.10590151 207.79785156 107.21142578 C215.00661461 111.00941236 222.2317826 114.77569288 229.45751953 118.54125977 C235.43760765 121.65907069 241.40996582 124.79099571 247.375 127.9375 C254.73562924 131.8194757 262.11487014 135.66485639 269.5 139.5 C277.6484703 143.73155101 285.78576837 147.98297369 293.90722656 152.26611328 C303.92053264 157.54442871 313.96200575 162.76883919 324 168 C335.61285836 174.05187929 347.22219239 180.10970767 358.80664062 186.21582031 C368.85455392 191.50884242 378.92877295 196.75152038 389 202 C400.61285836 208.05187929 412.22219239 214.10970767 423.80664062 220.21582031 C430.90490986 223.95503411 438.01472366 227.67198188 445.13232422 231.37426758 C450.23186954 234.02769302 455.32183149 236.69743978 460.3984375 239.39453125 C461.96223145 240.22138428 461.96223145 240.22138428 463.55761719 241.06494141 C465.55838466 242.12329071 467.55656835 243.18654337 469.55175781 244.25537109 C470.90672363 244.97007568 470.90672363 244.97007568 472.2890625 245.69921875 C473.08006348 246.12033936 473.87106445 246.54145996 474.68603516 246.9753418 C477.86163964 248.38154691 480.53721075 249.4613638 483.94677734 248.38598633 C484.88191162 247.86427856 484.88191162 247.86427856 485.8359375 247.33203125 C486.55813477 246.93967285 487.28033203 246.54731445 488.02441406 246.14306641 C488.80010742 245.70397949 489.57580078 245.26489258 490.375 244.8125 C492.08543705 243.87798969 493.79639744 242.94443678 495.5078125 242.01171875 C496.40532227 241.51720215 497.30283203 241.02268555 498.22753906 240.51318359 C502.86579257 237.98166764 507.55960477 235.55810756 512.25 233.125 C514.19810733 232.10974077 516.14602232 231.09411238 518.09375 230.078125 C521.04813185 228.53832466 524.0025816 226.99865463 526.95703125 225.45898438 C536.81317667 220.32203971 546.66773713 215.1825433 556.5 210 C568.29877871 203.7809147 580.12932961 197.62282625 591.95703125 191.45898438 C601.81317667 186.32203971 611.66773713 181.1825433 621.5 176 C633.29877871 169.7809147 645.12932961 163.62282625 656.95703125 157.45898438 C666.81317667 152.32203971 676.66773713 147.1825433 686.5 142 C698.29877871 135.7809147 710.12932961 129.62282625 721.95703125 123.45898438 C732.58106669 117.92182154 743.20001957 112.37574404 753.79785156 106.78857422 C761.00661461 102.99058764 768.2317826 99.22430712 775.45751953 95.45874023 C781.43760765 92.34092931 787.40996582 89.20900429 793.375 86.0625 C801.81115695 81.61329394 810.27307962 77.21437208 818.73730469 72.81884766 C825.04262087 69.54274501 831.33988184 66.25218042 837.625 62.9375 C849.38118209 56.73745959 861.17062235 50.60130711 872.95703125 44.45898438 C882.81317667 39.32203971 892.66773713 34.1825433 902.5 29 C910.36422909 24.85479881 918.2404339 20.73291742 926.12573242 16.62792969 C931.25888642 13.95532077 936.38585138 11.27174143 941.50390625 8.5703125 C942.5599707 8.01456543 943.61603516 7.45881836 944.70410156 6.88623047 C946.74293771 5.8130071 948.78011018 4.73661593 950.81542969 3.65673828 C952.18489746 2.93719971 952.18489746 2.93719971 953.58203125 2.203125 C954.79209839 1.56358887 954.79209839 1.56358887 956.02661133 0.91113281 C958 0 958 0 960 0 C960 52.8 960 105.6 960 160 C950.43 164.95 940.86 169.9 931 175 C923.82936748 178.76642659 923.82936748 178.76642659 916.6640625 182.54296875 C911.28583837 185.38076606 905.89278515 188.19000036 900.5 191 C893.53345723 194.63041948 886.57331793 198.27232198 879.625 201.9375 C871.18884305 206.38670606 862.72692038 210.78562792 854.26269531 215.18115234 C847.19705412 218.85230302 840.14425008 222.54676156 833.1015625 226.26171875 C825.92683266 230.04431441 818.73467518 233.79318759 811.54199219 237.54150391 C805.56207419 240.65924746 799.58987324 243.79108061 793.625 246.9375 C785.18884305 251.38670606 776.72692038 255.78562792 768.26269531 260.18115234 C761.95737913 263.45725499 755.66011816 266.74781958 749.375 270.0625 C737.61881791 276.26254041 725.82937765 282.39869289 714.04296875 288.54101562 C704.18682333 293.67796029 694.33226287 298.8174567 684.5 304 C672.70122129 310.2190853 660.87067039 316.37717375 649.04296875 322.54101562 C639.18682333 327.67796029 629.33226287 332.8174567 619.5 338 C607.70122129 344.2190853 595.87067039 350.37717375 584.04296875 356.54101562 C574.18682333 361.67796029 564.33226287 366.8174567 554.5 372 C542.6906071 378.22468 530.85019215 384.38986234 519.01074219 390.55712891 C517.02607502 391.59098544 515.04161709 392.62524374 513.05737305 393.65991211 C511.11979343 394.66927317 509.18117104 395.6766353 507.24145508 396.68188477 C502.78978574 398.99413532 498.36442297 401.33647083 493.98828125 403.7890625 C492.8288501 404.43065308 492.8288501 404.43065308 491.64599609 405.08520508 C490.22317619 405.87588777 488.80742743 406.67950104 487.40087891 407.4987793 C483.03247424 409.91142422 480.78406439 410.20642248 476 409 C473.40556264 407.83933529 470.93133766 406.64227745 468.42578125 405.31640625 C467.7089064 404.94540802 466.99203156 404.57440979 466.25343323 404.19216919 C463.93559432 402.99015521 461.62406334 401.7765318 459.3125 400.5625 C457.71080996 399.72888008 456.10875756 398.89595603 454.50634766 398.0637207 C449.99873007 395.71959047 445.49855371 393.36146528 441 391 C439.97922363 390.46536133 438.95844727 389.93072266 437.90673828 389.37988281 C434.12890906 387.40050502 430.35538498 385.41325668 426.5859375 383.41796875 C420.90612554 380.4155648 415.20191179 377.4601487 409.5 374.5 C401.35147189 370.2685612 393.21423092 366.01702594 385.09277344 361.73388672 C375.07946736 356.45557129 365.03799425 351.23116081 355 346 C343.38714164 339.94812071 331.77780761 333.89029233 320.19335938 327.78417969 C310.14544608 322.49115758 300.07122705 317.24847962 290 312 C278.38714164 305.94812071 266.77780761 299.89029233 255.19335938 293.78417969 C245.14544608 288.49115758 235.07122705 283.24847962 225 278 C213.38714164 271.94812071 201.77780761 265.89029233 190.19335938 259.78417969 C180.14544608 254.49115758 170.07122705 249.24847962 160 244 C148.39004918 237.94963593 136.78320334 231.89409849 125.20214844 225.78857422 C117.99338539 221.99058764 110.7682174 218.22430712 103.54248047 214.45874023 C97.56239235 211.34092931 91.59003418 208.20900429 85.625 205.0625 C78.26437076 201.1805243 70.88512986 197.33514361 63.5 193.5 C55.36170952 189.27373543 47.23360228 185.02943421 39.12353516 180.74926758 C34.76570883 178.4508852 30.40169865 176.16492853 26.03125 173.890625 C25.00854004 173.35832275 23.98583008 172.82602051 22.93212891 172.27758789 C20.95580249 171.24965194 18.97895006 170.22272643 17.00146484 169.19702148 C16.09090332 168.72337158 15.1803418 168.24972168 14.2421875 167.76171875 C13.4466748 167.34881592 12.65116211 166.93591309 11.83154297 166.51049805 C7.85982513 164.39176911 3.93502409 162.18612449 0 160 C0 107.2 0 54.4 0 0 Z " fill="#DC2226" transform="translate(0,582)"/>
<path d="M0 0 C2.20507173 1.06347851 4.37425933 2.1804059 6.54109192 3.31977844 C7.75923332 3.94796227 7.75923332 3.94796227 9.00198364 4.58883667 C11.59851022 5.93026961 14.18892435 7.28305898 16.77937317 8.63618469 C18.46974481 9.51127497 20.16049713 10.38563031 21.85163879 11.25923157 C31.08230354 16.03513354 40.28220536 20.86947562 49.47619629 25.71551514 C55.83572794 29.06718678 62.2099442 32.38985382 68.59187317 35.69868469 C76.69132638 39.90388526 84.77843877 44.13104197 92.84968567 48.39009094 C100.49583443 52.42051851 108.16758087 56.40136642 115.8384552 60.38447571 C122.05818322 63.615867 128.26867352 66.86370866 134.46687317 70.13618469 C142.15567583 74.19490805 149.8709812 78.20137759 157.59187317 82.19868469 C166.1101575 86.60899009 174.6170221 91.03901944 183.10066223 95.51557922 C189.17234235 98.71841005 195.25505318 101.89972628 201.34187317 105.07368469 C202.30351379 105.57513 203.26515442 106.07657532 204.25593567 106.59321594 C207.20111162 108.12863434 210.14645908 109.66372319 213.09187317 111.19868469 C234.87878313 122.55262919 234.87878313 122.55262919 245.34187317 128.07368469 C254.22856159 132.76207331 263.14966668 137.38332924 272.07380676 141.99995422 C279.82949707 146.01517076 287.56684983 150.06317604 295.26960754 154.17915344 C296.62848536 154.90039438 297.99341984 155.61041112 299.36579895 156.30561829 C300.80302829 157.04923709 302.19674909 157.87620295 303.57624817 158.72212219 C307.83320053 159.52856348 310.84110296 157.16524345 314.46687317 155.07368469 C316.17721602 154.12989792 317.88818075 153.18723747 319.59968567 152.24555969 C320.49719543 151.74475891 321.3947052 151.24395813 322.31941223 150.72798157 C326.94892214 148.17433151 331.64744765 145.75525478 336.34187317 143.32368469 C338.29526167 142.30596111 340.24838454 141.28772755 342.20124817 140.26899719 C343.66207825 139.50764465 343.66207825 139.50764465 345.15242004 138.73091125 C349.96632059 136.22160562 354.77905965 133.71007443 359.59187317 131.19868469 C365.38815508 128.17410814 371.18470646 125.15005384 376.98249817 122.12837219 C385.81913738 117.52200773 394.65238537 112.90981808 403.46687317 108.26118469 C411.90596741 103.81052845 420.37065379 99.40982327 428.83796692 95.01313782 C435.05786404 91.78167722 441.2685126 88.53374569 447.46687317 85.26118469 C455.15567583 81.20246134 462.8709812 77.1959918 470.59187317 73.19868469 C479.1101575 68.78837929 487.6170221 64.35834994 496.10066223 59.88179016 C507.06204353 54.0996262 518.05881071 48.38500324 529.04890442 42.65766907 C538.86376203 37.54224328 548.67696862 32.42423876 558.46687317 27.26118469 C566.88998446 22.81895762 575.33555869 18.42048269 583.79182434 14.04170227 C588.77932702 11.45614578 593.75458021 8.85329742 598.69734192 6.18305969 C599.55972473 5.71964172 600.42210754 5.25622375 601.31062317 4.77876282 C602.90437998 3.92010112 604.49452413 3.05468387 606.08015442 2.18110657 C606.78913879 1.8001886 607.49812317 1.41927063 608.22859192 1.02680969 C608.83404846 0.6958429 609.439505 0.3648761 610.06330872 0.02388 C614.29283937 -1.69664155 617.04244572 -2.17985685 621.40901184 -0.6047821 C622.61762692 -0.00316766 623.8176032 0.6160173 625.00984192 1.24946594 C625.98472816 1.74334808 625.98472816 1.74334808 626.97930908 2.24720764 C629.08748679 3.32005102 631.18315542 4.41518406 633.27937317 5.51118469 C634.7420673 6.2611383 636.20545123 7.00974802 637.66950989 7.7570343 C641.82167419 9.8826544 645.95939206 12.03508782 650.09187317 14.19868469 C651.03917297 14.69432922 651.98647278 15.18997375 652.96247864 15.70063782 C655.92957306 17.25852793 658.89348526 18.82202563 661.85041809 20.39912415 C669.8486861 24.64872675 677.96962353 28.65336214 686.07820129 32.6867218 C694.40517188 36.83064571 702.68498656 41.04490045 710.89265442 45.42134094 C718.50047176 49.45760005 726.21570535 53.27702066 733.926651 57.11094666 C742.11083255 61.18222299 750.24199813 65.33621406 758.31184387 69.62983704 C767.15328701 74.32113514 776.12165034 78.75995868 785.09187317 83.19868469 C785.09187317 83.85868469 785.09187317 84.51868469 785.09187317 85.19868469 C784.52492737 85.47953918 783.95798157 85.76039368 783.37385559 86.04975891 C771.88890732 91.74658907 760.46288098 97.53197047 749.13484192 103.53462219 C743.30442047 106.62248643 737.44781151 109.65957157 731.59187317 112.69868469 C724.20663408 116.53361727 716.82753684 120.37927713 709.46687317 124.26118469 C697.71069108 130.4612251 685.92125081 136.59737758 674.13484192 142.73970032 C664.2786965 147.87664498 654.42413604 153.01614139 644.59187317 158.19868469 C632.79309446 164.41777 620.96254356 170.57585844 609.13484192 176.73970032 C598.51080648 182.27686316 587.8918536 187.82294065 577.29402161 193.41011047 C570.08525856 197.20809705 562.86009056 200.97437758 555.63435364 204.73994446 C549.65426552 207.85775538 543.68190735 210.98968041 537.71687317 214.13618469 C529.28071622 218.58539076 520.81879355 222.98431261 512.35456848 227.37983704 C506.04925229 230.65593968 499.75199133 233.94650428 493.46687317 237.26118469 C481.71069108 243.4612251 469.92125081 249.59737758 458.13484192 255.73970032 C448.2786965 260.87664498 438.42413604 266.01614139 428.59187317 271.19868469 C416.79309446 277.41777 404.96254356 283.57585844 393.13484192 289.73970032 C383.2786965 294.87664498 373.42413604 300.01614139 363.59187317 305.19868469 C355.7256272 309.34494897 347.84825689 313.46956793 339.95954895 317.57295227 C334.86000363 320.22637771 329.77004168 322.89612447 324.69343567 325.59321594 C323.65090637 326.14445129 322.60837708 326.69568665 321.53425598 327.2636261 C319.53348851 328.3219754 317.53530482 329.38522806 315.54011536 330.45405579 C314.63680481 330.93052551 313.73349426 331.40699524 312.80281067 331.89790344 C312.01180969 332.31902405 311.22080872 332.74014465 310.40583801 333.17402649 C307.23023353 334.5802316 304.55466241 335.66004849 301.14509583 334.58467102 C300.52167297 334.23686584 299.89825012 333.88906067 299.25593567 333.53071594 C298.5337384 333.13835754 297.81154114 332.74599915 297.06745911 332.3417511 C295.90391907 331.68312073 295.90391907 331.68312073 294.71687317 331.01118469 C293.00643612 330.07667438 291.29547573 329.14312147 289.58406067 328.21040344 C288.23779602 327.46862854 288.23779602 327.46862854 286.86433411 326.71186829 C282.2260806 324.18035233 277.5322684 321.75679225 272.84187317 319.32368469 C270.89376584 318.30842547 268.94585085 317.29279707 266.99812317 316.27680969 C265.02939579 315.25072463 263.06064573 314.22468307 261.09187317 313.19868469 C249.47901481 307.1468054 237.86968078 301.08897702 226.28523254 294.98286438 C216.23731925 289.68984227 206.16310022 284.44716431 196.09187317 279.19868469 C184.47901481 273.1468054 172.86968078 267.08897702 161.28523254 260.98286438 C151.23731925 255.68984227 141.16310022 250.44716431 131.09187317 245.19868469 C119.47901481 239.1468054 107.86968078 233.08897702 96.28523254 226.98286438 C86.23731925 221.68984227 76.16310022 216.44716431 66.09187317 211.19868469 C54.48192235 205.14832063 42.87507651 199.09278318 31.29402161 192.98725891 C24.08525856 189.18927234 16.86009056 185.42299181 9.63435364 181.65742493 C3.65426552 178.53961401 -2.31809265 175.40768898 -8.28312683 172.26118469 C-15.64375607 168.379209 -23.02299697 164.5338283 -30.40812683 160.69868469 C-38.55659713 156.46713368 -46.6938952 152.215711 -54.81535339 147.93257141 C-64.82865947 142.65425598 -74.87013258 137.4298455 -84.90812683 132.19868469 C-96.52098519 126.1468054 -108.13031922 120.08897702 -119.71476746 113.98286438 C-128.75437177 109.22099751 -137.81593034 104.50127971 -146.87638855 99.7792511 C-150.05545494 98.12187666 -153.23383363 96.46318968 -156.41203308 94.80415344 C-157.46809753 94.25291809 -158.52416199 93.70168274 -159.61222839 93.13374329 C-161.64938786 92.07036268 -163.686499 91.00688948 -165.72355652 89.9433136 C-166.63653503 89.46684387 -167.54951355 88.99037415 -168.49015808 88.49946594 C-169.29686951 88.07834534 -170.10358093 87.65722473 -170.93473816 87.2233429 C-172.25399451 86.53833499 -173.57856355 85.86346633 -174.90812683 85.19868469 C-174.90812683 84.53868469 -174.90812683 83.87868469 -174.90812683 83.19868469 C-173.85649353 82.67548645 -172.80486023 82.15228821 -171.72135925 81.61323547 C-148.09650328 69.92273929 -148.09650328 69.92273929 -124.70573425 57.77534485 C-117.23166541 53.79664169 -109.64198889 50.04969991 -102.06108093 46.2802887 C-94.84084482 42.6884169 -87.64938082 39.05566842 -80.53312683 35.26118469 C-71.75092968 30.57944095 -62.84684348 26.14999526 -53.93699646 21.71824646 C-46.05006948 17.79346712 -38.19136166 13.82656296 -30.40812683 9.69868469 C-29.66345154 9.30576233 -28.91877625 8.91283997 -28.15153503 8.50801086 C-25.3824335 7.04573258 -22.61458712 5.58235553 -19.86271667 4.08784485 C-17.94742459 3.0483547 -16.02285126 2.02833092 -14.09562683 1.01118469 C-12.50814636 0.15460266 -12.50814636 0.15460266 -10.88859558 -0.71928406 C-6.83473119 -2.19100154 -3.97979968 -1.67131155 0 0 Z " fill="#EF542C" transform="translate(174.9081268310547,496.8013153076172)"/>
</svg>
