<svg id="Layer_1" data-name="Layer 1" xmlns="http://www.w3.org/2000/svg" viewBox="0 0 500 500"><defs><style>.cls-1{fill:#ea7a15;}.cls-2{fill:#ffecc7;}.cls-3{fill:#ffd48f;}.cls-4{fill:#ffc612;}.cls-5{fill:#f4ae00;}.cls-6{fill:#db8e05;}.cls-7{fill:none;stroke:#000;stroke-linecap:round;stroke-linejoin:round;stroke-width:15px;}</style></defs><title>envelope</title><polygon class="cls-1" points="439.67 224.05 491.43 191.99 439.67 152.73 439.67 224.05"/><polygon class="cls-1" points="317.3 59.9 250 8.85 182.7 59.9 317.3 59.9"/><polygon class="cls-1" points="60.33 152.73 8.57 191.99 60.33 224.05 60.33 152.73"/><polygon class="cls-2" points="250 341.57 439.67 224.05 439.67 59.9 60.33 59.9 60.33 224.05 250 341.57"/><polygon class="cls-3" points="409.67 59.9 409.67 242.64 439.67 224.05 439.67 59.9 409.67 59.9"/><polygon class="cls-4" points="491.43 491.15 8.57 491.15 8.57 191.99 250 341.57 491.43 191.99 491.43 491.15"/><polygon class="cls-5" points="8.57 491.15 213.14 318.73 8.57 191.99 8.57 491.15"/><polygon class="cls-5" points="491.43 491.15 286.86 318.73 491.43 191.99 491.43 491.15"/><polygon class="cls-6" points="461.43 210.57 461.43 465.86 491.43 491.15 491.43 191.99 461.43 210.57"/><polygon class="cls-7" points="491.43 491.15 8.57 491.15 8.57 191.99 250 341.57 491.43 191.99 491.43 491.15"/><polygon class="cls-7" points="439.67 224.05 491.43 191.99 439.67 152.73 439.67 224.05"/><polygon class="cls-7" points="317.3 59.9 250 8.85 182.7 59.9 317.3 59.9"/><polygon class="cls-7" points="60.33 152.73 8.57 191.99 60.33 224.05 60.33 152.73"/><polygon class="cls-7" points="250 341.57 439.67 224.05 439.67 59.9 60.33 59.9 60.33 224.05 250 341.57"/><polygon class="cls-7" points="8.57 491.15 213.14 318.73 8.57 191.99 8.57 491.15"/><polygon class="cls-7" points="491.43 491.15 286.86 318.73 491.43 191.99 491.43 491.15"/></svg>