
<!-- Generator: visioncortex VTracer 0.6.4 -->
<svg version="1.1" xmlns="http://www.w3.org/2000/svg" viewBox="0 0 512 512" preserveAspectRatio="xMidYMid meet">
<path d="M0 0 C2.313 -0.003 4.626 -0.006 6.939 -0.01 C13.183 -0.019 19.427 -0.021 25.671 -0.022 C29.583 -0.023 33.495 -0.025 37.407 -0.027 C50.383 -0.036 63.358 -0.041 76.333 -0.04 C77.379 -0.04 77.379 -0.04 78.445 -0.04 C79.143 -0.04 79.841 -0.04 80.56 -0.04 C91.855 -0.04 103.149 -0.049 114.444 -0.063 C126.092 -0.078 137.739 -0.084 149.387 -0.084 C155.906 -0.083 162.425 -0.086 168.944 -0.097 C175.082 -0.107 181.22 -0.106 187.358 -0.099 C189.594 -0.098 191.83 -0.1 194.066 -0.107 C230.151 -0.199 259.826 3.377 286.97 28.833 C308.196 50.887 312.518 78.62 313.337 108.05 C313.358 108.776 313.379 109.503 313.4 110.252 C313.94 129.399 313.93 148.547 313.917 167.699 C313.914 172.796 313.917 177.892 313.918 182.989 C313.92 191.527 313.918 200.066 313.913 208.604 C313.908 218.399 313.909 228.193 313.915 237.987 C313.919 246.493 313.92 254.998 313.917 263.504 C313.916 268.542 313.916 273.58 313.919 278.619 C313.939 314.372 313.939 314.372 313.353 330.073 C313.298 331.544 313.298 331.544 313.242 333.044 C312.092 359.002 307.128 381.978 289.783 402.145 C289.016 403.116 288.249 404.087 287.458 405.087 C284.687 408.411 281.519 411.017 278.095 413.645 C277.477 414.123 276.858 414.601 276.22 415.093 C243.757 439.833 200.861 435.451 162.22 435.381 C156.28 435.372 150.34 435.374 144.4 435.374 C134.434 435.373 124.469 435.365 114.503 435.351 C103.045 435.335 91.587 435.33 80.129 435.331 C67.835 435.331 55.541 435.325 43.248 435.315 C39.746 435.313 36.245 435.313 32.744 435.312 C27.205 435.311 21.667 435.305 16.129 435.295 C14.119 435.292 12.108 435.291 10.098 435.291 C-0.6 435.293 -11.277 435.135 -21.967 434.718 C-22.94 434.682 -23.913 434.646 -24.916 434.609 C-49.018 433.572 -69.171 427.377 -88.217 412.145 C-88.852 411.677 -89.486 411.209 -90.139 410.727 C-108.449 396.559 -117.191 373.791 -120.405 351.708 C-123.06 326.359 -122.381 300.687 -122.385 275.236 C-122.385 271.918 -122.387 268.601 -122.39 265.283 C-122.399 253.648 -122.403 242.012 -122.403 230.377 C-122.402 219.629 -122.413 208.881 -122.428 198.133 C-122.442 188.821 -122.447 179.509 -122.446 170.197 C-122.446 164.673 -122.449 159.148 -122.459 153.624 C-122.53 114.33 -122.53 114.33 -121.39 95.646 C-121.321 94.473 -121.252 93.299 -121.181 92.091 C-119.315 66.152 -110.696 44.408 -92.217 26.145 C-91.501 25.418 -90.784 24.691 -90.045 23.942 C-78.19 12.622 -63.752 6.469 -47.967 2.958 C-47.23 2.79 -46.492 2.623 -45.732 2.451 C-30.779 -0.654 -15.187 -0.004 0 0 Z " fill="#FEFEFE" transform="translate(160.21728515625,30.854736328125)"/>
<path d="M0 0 C8.451 7.094 15.38 18.757 16.401 29.89 C16.474 32.171 16.486 34.445 16.476 36.727 C16.479 37.596 16.483 38.466 16.487 39.362 C16.497 42.262 16.493 45.163 16.49 48.064 C16.494 50.149 16.499 52.234 16.505 54.319 C16.518 59.974 16.519 65.629 16.516 71.284 C16.515 76.008 16.52 80.732 16.525 85.456 C16.536 96.603 16.537 107.75 16.531 118.896 C16.524 130.388 16.537 141.88 16.558 153.372 C16.576 163.246 16.582 173.12 16.578 182.993 C16.577 188.887 16.579 194.781 16.593 200.675 C16.606 206.219 16.604 211.762 16.591 217.306 C16.588 219.337 16.591 221.369 16.599 223.4 C16.61 226.179 16.602 228.958 16.589 231.738 C16.596 232.536 16.604 233.333 16.611 234.155 C16.55 240.615 15.341 246.842 11.566 252.199 C10.997 252.726 10.427 253.254 9.84 253.797 C9.275 254.342 8.711 254.887 8.129 255.449 C-10.388 269.091 -37.786 258.859 -60.785 258.859 C-61.28 192.529 -61.28 192.529 -61.785 124.859 C-68.715 130.139 -75.645 135.419 -82.785 140.859 C-93.285 148.734 -93.285 148.734 -98.289 152.48 C-102.972 155.993 -107.614 159.554 -112.246 163.133 C-123.563 171.868 -134.941 180.529 -146.41 189.062 C-148.906 190.951 -151.35 192.894 -153.785 194.859 C-157.705 193.167 -160.858 190.571 -164.16 187.922 C-165.42 186.92 -166.681 185.919 -167.941 184.918 C-168.582 184.407 -169.223 183.897 -169.883 183.371 C-171.667 181.953 -173.458 180.546 -175.254 179.145 C-181.508 174.262 -187.703 169.316 -193.848 164.297 C-198.629 160.393 -203.439 156.541 -208.348 152.797 C-213.022 149.231 -217.638 145.603 -222.223 141.922 C-240.366 127.364 -258.894 113.433 -277.785 99.859 C-287.892 92.589 -297.967 85.281 -307.978 77.879 C-308.707 77.34 -309.436 76.801 -310.188 76.246 C-311.278 75.407 -311.278 75.407 -312.39 74.551 C-314.809 72.762 -314.809 72.762 -317.764 71.306 C-325.049 67.168 -325.049 67.168 -326.373 63.014 C-327.152 58.369 -327.047 53.743 -326.835 49.052 C-326.723 46.562 -326.691 44.08 -326.674 41.588 C-326.42 26.585 -322.36 12.95 -311.785 1.859 C-304.142 -3.995 -297.193 -4.891 -287.785 -4.141 C-268.438 -0.745 -250.879 16.898 -235.891 28.652 C-231.598 32.016 -227.244 35.288 -222.871 38.547 C-219.178 41.314 -215.511 44.116 -211.848 46.922 C-205.334 51.911 -198.813 56.889 -192.285 61.859 C-180.426 70.892 -180.426 70.892 -174.72 75.253 C-173.288 76.347 -171.855 77.438 -170.421 78.528 C-166.052 81.854 -161.785 85.273 -157.645 88.883 C-155.794 90.04 -155.794 90.04 -153.473 89.852 C-149.748 88.477 -147.028 86.139 -144.035 83.609 C-142.698 82.509 -141.359 81.41 -140.02 80.312 C-139.325 79.742 -138.631 79.172 -137.916 78.584 C-134.432 75.764 -130.859 73.064 -127.285 70.359 C-121.174 65.717 -115.148 60.983 -109.17 56.17 C-104.698 52.574 -100.174 49.055 -95.617 45.569 C-91.754 42.611 -87.919 39.62 -84.098 36.609 C-82.306 35.201 -80.515 33.792 -78.723 32.384 C-77.382 31.329 -76.042 30.274 -74.703 29.218 C-20.168 -13.728 -20.168 -13.728 0 0 Z " fill="#EA4335" transform="translate(410.78515625,113.140625)"/>
<path d="M0 0 C7.708 4.373 7.708 4.373 10.551 6.559 C11.157 7.02 11.763 7.481 12.388 7.957 C13.023 8.445 13.658 8.934 14.312 9.438 C20.115 13.845 25.961 18.181 31.875 22.438 C32.624 22.977 33.374 23.516 34.146 24.072 C35.669 25.168 37.193 26.264 38.718 27.359 C40.983 28.988 43.246 30.62 45.508 32.254 C46.209 32.758 46.91 33.262 47.633 33.782 C49.123 34.864 50.605 35.957 52.075 37.066 C55.847 39.882 59.503 42.333 63.755 44.365 C70.043 47.61 75.721 51.051 77.996 58.073 C79.452 66.788 79.128 75.591 78.825 84.386 C78.712 88.247 78.702 92.107 78.681 95.969 C78.625 103.263 78.478 110.553 78.296 117.844 C78.094 126.153 77.996 134.463 77.906 142.774 C77.718 159.852 77.402 176.925 77 194 C68.89 194.093 60.779 194.164 52.668 194.207 C48.902 194.228 45.136 194.256 41.369 194.302 C37.732 194.345 34.094 194.369 30.457 194.38 C29.072 194.387 27.687 194.401 26.302 194.423 C12.921 194.624 12.921 194.624 8 190 C7.095 189.153 7.095 189.153 6.172 188.289 C5.468 187.465 5.468 187.465 4.75 186.625 C4.27 186.081 3.791 185.537 3.297 184.977 C0.106 180.114 -0.249 175.252 -0.241 169.559 C-0.242 168.831 -0.244 168.103 -0.246 167.353 C-0.249 164.926 -0.238 162.498 -0.227 160.071 C-0.226 158.326 -0.227 156.581 -0.228 154.837 C-0.229 150.108 -0.217 145.379 -0.203 140.65 C-0.19 135.705 -0.189 130.761 -0.187 125.816 C-0.181 116.456 -0.164 107.095 -0.144 97.735 C-0.122 87.077 -0.111 76.42 -0.101 65.762 C-0.08 43.841 -0.045 21.921 0 0 Z " fill="#4385F3" transform="translate(85,178)"/>
<path d="M0 0 C0.07 22.792 0.123 45.584 0.155 68.376 C0.171 78.96 0.192 89.543 0.226 100.126 C0.256 109.352 0.276 118.577 0.282 127.803 C0.286 132.687 0.295 137.57 0.317 142.454 C0.338 147.054 0.344 151.655 0.339 156.255 C0.34 157.94 0.346 159.625 0.358 161.309 C0.48 180.061 0.48 180.061 -4.648 187.34 C-5.218 187.867 -5.788 188.394 -6.375 188.938 C-6.94 189.483 -7.504 190.028 -8.086 190.59 C-12.289 193.686 -16.118 194.248 -21.259 194.227 C-23.12 194.227 -23.12 194.227 -25.019 194.227 C-26.363 194.216 -27.707 194.206 -29.051 194.195 C-30.434 194.192 -31.817 194.189 -33.2 194.187 C-36.828 194.179 -40.456 194.159 -44.084 194.137 C-47.791 194.117 -51.498 194.108 -55.205 194.098 C-62.47 194.076 -69.735 194.042 -77 194 C-77.422 176.51 -77.739 159.022 -77.933 141.529 C-78.025 133.405 -78.151 125.284 -78.358 117.162 C-78.538 110.076 -78.654 102.993 -78.694 95.906 C-78.717 92.157 -78.771 88.414 -78.903 84.667 C-79.671 62.012 -79.671 62.012 -75.285 55.424 C-71.202 51.112 -66.552 48.135 -61.349 45.34 C-57.417 43.097 -53.969 40.253 -50.438 37.438 C-49.037 36.364 -47.635 35.293 -46.23 34.227 C-41.901 30.925 -37.575 27.619 -33.25 24.312 C-32.189 23.502 -32.189 23.502 -31.107 22.675 C-27.875 20.205 -24.647 17.731 -21.43 15.242 C-1.721 0 -1.721 0 0 0 Z " fill="#35A853" transform="translate(427,178)"/>
<path d="M0 0 C10.017 6.819 15.721 17.99 18.625 29.5 C19.321 34.727 19.376 40.021 19.49 45.287 C19.538 46.966 19.613 48.645 19.716 50.322 C20.529 63.842 20.529 63.842 17.401 68.209 C13.92 71.692 9.852 74.028 5.625 76.5 C3.489 78.046 1.441 79.672 -0.625 81.312 C-6.43 85.78 -12.249 90.229 -18.068 94.676 C-22.425 98.007 -26.779 101.343 -31.125 104.688 C-32.154 105.479 -33.182 106.27 -34.242 107.086 C-36.436 108.777 -38.629 110.469 -40.82 112.164 C-56.784 124.5 -56.784 124.5 -58.375 124.5 C-58.677 111.113 -58.907 97.728 -59.049 84.338 C-59.116 78.12 -59.208 71.905 -59.356 65.688 C-59.497 59.684 -59.575 53.682 -59.608 47.676 C-59.632 45.389 -59.679 43.103 -59.749 40.818 C-60.265 23.361 -60.265 23.361 -57.098 18.567 C-53.685 14.966 -49.754 12.75 -45.375 10.5 C-44.1 9.593 -42.841 8.665 -41.613 7.695 C-35.463 3.343 -29.601 -0.264 -22.375 -2.5 C-21.75 -2.697 -21.125 -2.894 -20.48 -3.098 C-13.548 -4.422 -6.153 -3.407 0 0 Z " fill="#FABC06" transform="translate(408.375,111.5)"/>
<path d="M0 0 C18.766 12.79 18.766 12.79 22.066 16.09 C22.162 19.225 22.192 22.339 22.18 25.475 C22.18 26.46 22.18 27.445 22.18 28.46 C22.18 31.734 22.172 35.008 22.164 38.281 C22.162 40.544 22.161 42.807 22.16 45.07 C22.156 51.04 22.146 57.009 22.135 62.978 C22.125 69.064 22.12 75.15 22.115 81.236 C22.104 93.188 22.087 105.139 22.066 117.09 C18.417 115.33 15.213 113.153 11.941 110.777 C11.334 110.34 10.728 109.903 10.102 109.452 C8.782 108.5 7.463 107.547 6.145 106.593 C4.037 105.069 1.925 103.549 -0.188 102.031 C-8.766 95.86 -17.295 89.626 -25.794 83.345 C-32.213 78.607 -38.672 73.924 -45.148 69.264 C-45.85 68.759 -46.551 68.254 -47.273 67.734 C-47.886 67.295 -48.498 66.855 -49.129 66.402 C-49.724 65.969 -50.32 65.536 -50.934 65.09 C-51.658 64.705 -52.383 64.321 -53.129 63.925 C-55.467 61.548 -55.431 59.638 -55.489 56.391 C-55.481 55.632 -55.473 54.872 -55.465 54.09 C-55.469 53.299 -55.472 52.508 -55.476 51.693 C-55.479 50.015 -55.472 48.337 -55.455 46.66 C-55.434 44.126 -55.455 41.596 -55.48 39.062 C-55.507 23.843 -51.688 10.369 -40.934 -0.91 C-28.249 -10.626 -12.845 -8.103 0 0 Z " fill="#C52320" transform="translate(139.93359375,115.91015625)"/>
</svg>