<svg width="1416" height="1126" viewBox="0 0 1416 1126" fill="none" xmlns="http://www.w3.org/2000/svg">
<path d="M717.845 1005C714.575 1018.89 711.695 1032.26 709.26 1045H707.165C705.023 1032.09 702.476 1018.73 699.553 1005H717.845Z" fill="#CCBFF0"/>
<path d="M955.482 416C954.075 418.222 952.659 420.484 951.236 422.786C951.135 422.95 951.035 423.113 950.934 423.277C945.431 432.196 939.82 441.706 934.124 451.741C931.221 456.855 928.297 462.106 925.354 467.484C924.644 468.783 923.932 470.09 923.219 471.403C920.072 477.203 916.905 483.145 913.724 489.22C911.824 492.846 909.919 496.52 908.01 500.238C906.202 503.758 904.39 507.317 902.575 510.915C900.484 515.061 898.389 519.258 896.29 523.503C895.277 525.551 894.263 527.609 893.249 529.679C889.352 537.633 885.446 545.746 881.539 554H533.826C519.976 526.632 506.082 500.947 492.452 477.62C490.889 474.945 489.329 472.301 487.773 469.689C486.805 468.064 485.838 466.45 484.873 464.85C482.464 460.854 480.065 456.936 477.678 453.102C476.76 451.628 475.845 450.166 474.931 448.717C470.01 440.913 465.143 433.469 460.346 426.42C459.494 425.168 458.644 423.929 457.797 422.702C456.223 420.424 454.658 418.19 453.101 416H955.482Z" fill="#7A63BD"/>
<path d="M745 909C740.834 942.624 736.894 975.68 733.207 1008H685.27C681.766 975.473 677.999 942.427 674 909H745Z" fill="url(#paint0_linear_52_3)"/>
<path d="M774 773C769.506 818.612 765.145 864.008 760.941 909H659.018C654.841 863.841 650.495 818.449 646 773H774Z" fill="url(#paint1_linear_52_3)"/>
<path d="M833 689C821.934 723.425 811.122 758.543 800.754 793.75C797.198 805.825 793.692 817.917 790.245 830H629.031C622.863 808.698 616.492 787.45 609.96 766.378C601.873 740.289 593.525 714.419 585 689H833Z" fill="url(#paint2_linear_52_3)"/>
<path d="M882.539 567C866.279 601.348 849.992 638.131 834.223 676H585.863C569.319 637.919 552.108 601.148 534.827 567H882.539Z" fill="url(#paint3_linear_52_3)"/>
<path d="M955.482 416C954.075 418.222 952.659 420.484 951.236 422.786C951.135 422.95 951.035 423.113 950.934 423.277C945.431 432.196 939.82 441.706 934.124 451.741C931.221 456.855 928.297 462.106 925.354 467.484C924.644 468.783 923.932 470.09 923.219 471.403C920.072 477.203 916.905 483.145 913.724 489.22C911.824 492.846 909.919 496.52 908.01 500.238C906.202 503.758 904.39 507.317 902.575 510.915C900.484 515.061 898.389 519.258 896.29 523.503C895.277 525.551 894.263 527.609 893.249 529.679C889.352 537.633 885.446 545.746 881.539 554H533.826C519.976 526.632 506.082 500.947 492.452 477.62C490.889 474.945 489.329 472.301 487.773 469.689C486.805 468.064 485.838 466.45 484.873 464.85C482.464 460.854 480.065 456.936 477.678 453.102C476.76 451.628 475.845 450.166 474.931 448.717C470.01 440.913 465.143 433.469 460.346 426.42C459.494 425.168 458.644 423.929 457.797 422.702C456.223 420.424 454.658 418.19 453.101 416H955.482Z" fill="url(#paint4_linear_52_3)"/>
<path d="M858 148.5C858 230.514 791.514 297 709.5 297C627.486 297 561 230.514 561 148.5C561 66.4857 627.486 0 709.5 0C791.514 0 858 66.4857 858 148.5Z" fill="url(#paint5_linear_52_3)"/>
<path d="M616.182 832C620.973 845.376 625.604 858.726 630.053 872H440V832H616.182Z" fill="url(#paint6_linear_52_3)"/>
<path d="M980 872H790.409C794.883 858.765 799.521 845.413 804.299 832H980V872Z" fill="url(#paint7_linear_52_3)"/>
<path d="M559.498 691C568.868 712.397 578.053 734.276 586.94 756.407C592.749 770.872 598.42 785.425 603.929 800H321C309.954 800 301 791.046 301 780V691H559.498Z" fill="url(#paint8_linear_52_3)"/>
<path d="M1120 780C1120 791.046 1111.05 800 1100 800H816.405C819.216 792.441 822.063 784.879 824.945 777.323C836.049 748.219 847.639 719.257 859.48 691H1120V780Z" fill="url(#paint9_linear_52_3)"/>
<path d="M503.994 569C521.336 602.899 538.715 639.675 555.498 678H167C155.954 678 147 669.046 147 658V569H503.994Z" fill="url(#paint10_linear_52_3)"/>
<path d="M1272 658C1272 669.046 1263.05 678 1252 678H861.48C877.434 639.929 893.847 603.138 910.149 569H1272V658Z" fill="url(#paint11_linear_52_3)"/>
<path d="M417.564 416C431.824 435.181 447 458.641 462.597 485.349C462.864 485.807 463.131 486.267 463.399 486.728C464.016 487.787 464.634 488.85 465.252 489.919C465.604 490.529 465.956 491.142 466.309 491.755C469.427 497.175 472.561 502.719 475.706 508.382C475.833 508.611 475.961 508.841 476.089 509.07C476.707 510.185 477.324 511.304 477.943 512.428C478.294 513.065 478.646 513.703 478.997 514.343C479.557 515.364 480.117 516.389 480.678 517.417C480.991 517.991 481.306 518.566 481.619 519.143C482.25 520.303 482.881 521.468 483.513 522.637C483.843 523.249 484.174 523.862 484.505 524.477C485.098 525.579 485.692 526.685 486.286 527.795C486.624 528.427 486.962 529.06 487.3 529.694C487.843 530.714 488.389 531.735 488.933 532.761C489.333 533.515 489.732 534.272 490.132 535.029C490.692 536.089 491.253 537.151 491.813 538.218C491.962 538.501 492.11 538.785 492.259 539.068C494.834 543.979 497.412 548.958 499.991 554H20C8.95431 554 0 545.046 0 534V416H417.564Z" fill="url(#paint12_linear_52_3)"/>
<path d="M1416 534C1416 545.046 1407.05 554 1396 554H912.149C921.832 533.725 931.475 514.385 940.961 496.27C941.146 495.915 941.331 495.561 941.517 495.208C942.155 493.991 942.793 492.78 943.43 491.574C943.653 491.151 943.877 490.729 944.101 490.308C944.716 489.145 945.331 487.987 945.945 486.835C946.144 486.463 946.342 486.092 946.54 485.722C948.612 481.845 950.676 478.032 952.729 474.282C952.924 473.924 953.119 473.567 953.314 473.21C953.859 472.217 954.405 471.23 954.948 470.247C955.229 469.739 955.508 469.231 955.788 468.726C956.326 467.755 956.865 466.789 957.401 465.827C957.743 465.215 958.085 464.606 958.426 463.998C958.925 463.108 959.422 462.222 959.92 461.34C960.332 460.61 960.745 459.884 961.156 459.159C963.917 454.294 966.653 449.556 969.367 444.957C969.432 444.847 969.497 444.736 969.562 444.626C975.62 434.371 981.553 424.802 987.322 416H1416V534Z" fill="url(#paint13_linear_52_3)"/>
<path d="M428.253 376.596C483.54 437.463 555.941 575.124 614.5 720.954C655.934 824.138 691.123 933.112 708.464 1023.84C712.872 1003.36 718.243 981.605 724.398 958.967C742.554 892.191 767.805 816.778 796.259 742.194C852.981 593.512 923.136 446.281 976.089 377.383L995.911 392.617C945.364 458.386 876.269 602.605 819.616 751.105C791.382 825.113 766.414 899.725 748.523 965.526C730.553 1031.62 720 1087.85 720 1125.5L695 1125.6C694.22 1029.51 649.738 875.8 591.3 730.271C532.842 584.693 461.794 450.704 409.747 393.404L428.253 376.596Z" fill="url(#paint14_linear_52_3)"/>
<defs>
<linearGradient id="paint0_linear_52_3" x1="704.292" y1="830" x2="704.292" y2="-4.94719e-05" gradientUnits="userSpaceOnUse">
<stop stop-color="#FFF7B1"/>
<stop offset="0.67" stop-color="#FFA582"/>
<stop offset="1" stop-color="#FA8455"/>
</linearGradient>
<linearGradient id="paint1_linear_52_3" x1="704.292" y1="830" x2="704.292" y2="-4.94719e-05" gradientUnits="userSpaceOnUse">
<stop stop-color="#FFF7B1"/>
<stop offset="0.67" stop-color="#FFA582"/>
<stop offset="1" stop-color="#FA8455"/>
</linearGradient>
<linearGradient id="paint2_linear_52_3" x1="704.292" y1="830" x2="704.292" y2="-4.94719e-05" gradientUnits="userSpaceOnUse">
<stop stop-color="#FFF7B1"/>
<stop offset="0.67" stop-color="#FFA582"/>
<stop offset="1" stop-color="#FA8455"/>
</linearGradient>
<linearGradient id="paint3_linear_52_3" x1="704.292" y1="830" x2="704.292" y2="-4.94719e-05" gradientUnits="userSpaceOnUse">
<stop stop-color="#FFF7B1"/>
<stop offset="0.67" stop-color="#FFA582"/>
<stop offset="1" stop-color="#FA8455"/>
</linearGradient>
<linearGradient id="paint4_linear_52_3" x1="704.292" y1="830" x2="704.292" y2="-4.94719e-05" gradientUnits="userSpaceOnUse">
<stop stop-color="#FFF7B1"/>
<stop offset="0.67" stop-color="#FFA582"/>
<stop offset="1" stop-color="#FA8455"/>
</linearGradient>
<linearGradient id="paint5_linear_52_3" x1="704.292" y1="830" x2="704.292" y2="-4.94719e-05" gradientUnits="userSpaceOnUse">
<stop stop-color="#FFF7B1"/>
<stop offset="0.67" stop-color="#FFA582"/>
<stop offset="1" stop-color="#FA8455"/>
</linearGradient>
<linearGradient id="paint6_linear_52_3" x1="708" y1="1125.6" x2="708" y2="376.596" gradientUnits="userSpaceOnUse">
<stop stop-color="#4B1BFF"/>
<stop offset="1" stop-color="#FFA582"/>
</linearGradient>
<linearGradient id="paint7_linear_52_3" x1="708" y1="1125.6" x2="708" y2="376.596" gradientUnits="userSpaceOnUse">
<stop stop-color="#4B1BFF"/>
<stop offset="1" stop-color="#FFA582"/>
</linearGradient>
<linearGradient id="paint8_linear_52_3" x1="708" y1="1125.6" x2="708" y2="376.596" gradientUnits="userSpaceOnUse">
<stop stop-color="#4B1BFF"/>
<stop offset="1" stop-color="#FFA582"/>
</linearGradient>
<linearGradient id="paint9_linear_52_3" x1="708" y1="1125.6" x2="708" y2="376.596" gradientUnits="userSpaceOnUse">
<stop stop-color="#4B1BFF"/>
<stop offset="1" stop-color="#FFA582"/>
</linearGradient>
<linearGradient id="paint10_linear_52_3" x1="708" y1="1125.6" x2="708" y2="376.596" gradientUnits="userSpaceOnUse">
<stop stop-color="#4B1BFF"/>
<stop offset="1" stop-color="#FFA582"/>
</linearGradient>
<linearGradient id="paint11_linear_52_3" x1="708" y1="1125.6" x2="708" y2="376.596" gradientUnits="userSpaceOnUse">
<stop stop-color="#4B1BFF"/>
<stop offset="1" stop-color="#FFA582"/>
</linearGradient>
<linearGradient id="paint12_linear_52_3" x1="708" y1="1125.6" x2="708" y2="376.596" gradientUnits="userSpaceOnUse">
<stop stop-color="#4B1BFF"/>
<stop offset="1" stop-color="#FFA582"/>
</linearGradient>
<linearGradient id="paint13_linear_52_3" x1="708" y1="1125.6" x2="708" y2="376.596" gradientUnits="userSpaceOnUse">
<stop stop-color="#4B1BFF"/>
<stop offset="1" stop-color="#FFA582"/>
</linearGradient>
<linearGradient id="paint14_linear_52_3" x1="708" y1="1125.6" x2="708" y2="376.596" gradientUnits="userSpaceOnUse">
<stop stop-color="#4B1BFF"/>
<stop offset="1" stop-color="#FFA582"/>
</linearGradient>
</defs>
</svg>
