<svg width="79" height="70" viewBox="0 0 79 70" fill="none" xmlns="http://www.w3.org/2000/svg">
<path fill-rule="evenodd" clip-rule="evenodd" d="M39.9 0.0999756C18.2 0.0999756 0.600006 17.6 0.600006 39.2C0.600006 50 4.99999 60.4 12.9 67.8C15.7 70.4 19.9 70.7 23 68.3C32.9 60.9 46.5 60.9 56.4 68.3C59.5 70.6 63.8 70.4 66.5 67.7C82.2 52.8 82.9 28 68 12.2C60.6 4.59998 50.5 0.199976 39.9 0.0999756ZM39.7 58.9C29.2 59.2 20.5 50.9 20.2 40.4C20.2 40.1 20.2 39.7 20.2 39.4C20.2 28.6 28.9 19.9 39.7 19.9C50.5 19.9 59.2 28.6 59.2 39.4C59.5 49.9 51.2 58.6 40.7 58.9C40.3 58.9 40 58.9 39.7 58.9Z" fill="#62D84E"/>
</svg>
