<?xml version="1.0" encoding="UTF-8"?>
<svg xmlns="http://www.w3.org/2000/svg" viewBox="0 0 1342 894" width="1342" height="894">
<path d="M0.25 0.25C447.42 0.25 894.58 0.25 1341.75 0.25C1341.75 298.08 1341.75 595.92 1341.75 893.75C894.58 893.75 447.42 893.75 0.25 893.75C0.25 595.92 0.25 298.08 0.25 0.25ZM294.1 335.78C298.11 334.34 302.28 333.42 306.18 331.63C321.55 324.56 334.43 312.2 340.8 296.32C357.6 254.47 326.97 209.41 282.5 208.17C238.4 206.94 204.98 252.49 219.33 294.23C224.97 310.62 237.58 324 253.14 331.39C256.58 333.03 260.24 334.03 263.76 335.47C263.76 342.97 263.76 350.47 263.76 357.97C258.13 360.25 252.16 361.5 246.63 364.12C232.31 370.91 220.34 382.15 212.27 395.75C184.83 442.04 211.67 499.25 263.13 510.88C263.13 517.09 263.13 523.29 263.13 529.5C258.58 532.52 252.53 533.39 247.63 536.11C235.43 542.88 225.47 553.48 219.65 566.18C200.03 608.94 231.95 657.09 278.5 657.05C323.56 657.01 355.27 611.05 338.59 568.86C332.54 553.57 320.64 541.77 306.1 534.43C302.07 532.39 297.62 531.41 293.56 529.5C293.56 523.5 293.56 517.5 293.56 511.5C304.43 507.71 314.86 504.72 324.43 497.97C331.86 492.72 337.21 485.98 343.5 479.61C355.06 485.57 366.62 491.54 378.18 497.5C378.07 502.51 377.11 507.45 377.21 512.5C377.52 527.34 383.11 542.27 393.17 553.3C424.88 588.06 481.36 578.95 500.37 535.84C518.33 495.12 488.47 448.34 444.5 446.14C431 445.46 416.19 449.74 405.23 457.7C399.72 461.7 395.62 467 390.5 471.25C378.72 465 366.95 458.75 355.17 452.5C356.14 443.72 357.59 435.44 356.7 426.53C355.95 419.09 353.01 412.29 352.28 405.5C366.68 396.53 381.09 387.56 395.5 378.59C409.63 393.73 429.41 402.6 450.45 399.73C492.76 393.98 520.55 345.64 499.65 306.81C476.89 264.5 419.69 261.29 392.04 300.57C384.77 310.9 380.52 323.86 380.36 336.5C380.3 342.22 381.99 347.88 381.72 353.5C366.65 362.87 351.57 372.25 336.5 381.62C322.58 368.47 312.25 363.54 294.1 358.01C294.1 350.6 294.1 343.19 294.1 335.78ZM277.79 238.46C314.33 234.56 329.27 284.88 297.06 302.55C292.76 304.91 288.42 306.42 283.5 306.81C278.52 307.21 273.24 306.68 268.54 304.93C233.83 292.06 241.86 242.29 277.79 238.46ZM1086.44 325.5C1083.73 326.86 1080.91 328.03 1078.86 330.34C1074.09 335.72 1075.7 345.07 1082.2 348.34C1086.23 350.35 1091.15 349.66 1095.5 349.67C1103.83 349.68 1112.17 349.65 1120.5 349.65C1126.52 349.65 1132.72 349.45 1136.43 343.91C1139.99 338.6 1138.27 332.79 1136.2 327.34C1133.07 319.12 1130.12 310.83 1126.78 302.7C1125.18 298.82 1124.4 294.19 1121.36 291.13C1115.61 285.34 1105.96 285.89 1101.52 293.01C1099.58 296.12 1099.76 299.53 1099.5 302.99C1079.76 293.74 1058.39 288.6 1036.5 289.05C965.91 290.53 903.23 346.1 894.75 416.49C891.93 439.82 894.54 462.66 902.78 484.67C905.03 490.68 908.49 501.05 912.88 505.62C920.43 513.46 934.07 508.39 934.7 497.46C934.95 492.96 932.12 489.12 930.37 485.19C926.94 477.45 924.1 469.71 922.12 461.46C915.9 435.59 919.45 408.88 930.32 384.77C951.98 336.7 1007.46 306.73 1059.52 316.86C1068.88 318.69 1077.96 321.05 1086.44 325.5ZM437.72 303.35C442.23 302.43 447.26 302.46 451.7 303.68C486.78 313.35 483.43 364.96 447.47 369.8C443.15 370.38 438.73 370.17 434.52 369C400.03 359.38 403.25 310.39 437.72 303.35ZM685.69 328.29C673.4 331.11 676.91 347.38 676.82 356.5C676.76 362.77 675.23 374.38 679.01 379.47C682.6 384.3 688.06 384.08 693.5 384.09C700.83 384.1 708.17 384.18 715.5 384.12C719.94 384.07 724.47 384.58 728.15 381.62C732.51 378.13 732.47 373.62 732.51 368.5C732.57 360.17 732.78 351.83 732.61 343.5C732.5 338.17 732.22 333.33 727.45 330.03C723.6 327.36 718.94 328.01 714.5 328.04C706.61 328.1 692.82 326.65 685.69 328.29ZM540.64 351.5C528.47 352.1 525.54 368.46 537.51 371.11C544.62 372.68 560.47 371.39 568.5 371.4C589.83 371.41 611.17 371.36 632.5 371.38C639.55 371.39 647.56 372.46 654.5 371.25C657.61 370.71 660.68 368.76 661.12 365.5C661.49 362.71 661.72 357.61 660.41 355.08C658.96 352.28 655.25 351.7 652.5 351.55C646.22 351.19 639.8 351.48 633.5 351.48C613.5 351.5 593.5 351.59 573.5 351.55C562.59 351.52 551.54 350.95 540.64 351.5ZM760.75 351.49C757 351.57 752.88 351.63 750.44 354.95C747.37 359.13 747.95 369.06 753.61 370.87C759.05 372.62 777.65 371.33 784.5 371.38C808.83 371.56 833.17 371.22 857.5 371.41C865.89 371.47 887.13 374.92 887.83 362.5C888.66 347.74 867.88 351.51 858.5 351.48C825.95 351.38 793.29 350.8 760.75 351.49ZM973.5 560.56C1033.88 591.65 1104.66 577.53 1149.29 526.79C1181.72 489.94 1192.42 441.4 1179.37 394.23C1176.71 384.6 1168.34 362.97 1161.55 355.93C1153.41 347.5 1139 353.92 1139.44 365.44C1139.61 369.93 1142.46 373.29 1144.37 377.15C1147.5 383.48 1150.62 390.04 1152.59 396.83C1160.42 423.76 1160.74 451.76 1149.4 477.87C1122.25 540.37 1047.87 570.5 986.27 537.5C988.7 536 991.49 535.15 993.36 532.85C998.05 527.05 995.97 517.48 988.95 514.55C984.85 512.84 979.84 513.61 975.5 513.61C967.83 513.6 960.16 513.65 952.5 513.62C946.25 513.59 939.75 513.63 936.06 519.6C932.59 525.2 934.7 530.24 936.56 535.89C939.32 544.26 942.67 552.44 945.73 560.71C947.3 564.96 948.49 570.43 951.87 573.63C957.22 578.71 966.93 577.68 970.94 571.4C973.07 568.07 972.79 564.16 973.5 560.56ZM1006.64 365.31C993.06 367.48 996.31 384.75 996.3 394.5C996.27 421.5 996.24 448.5 996.26 475.5C996.26 485.28 994.2 500.59 1008.5 500.71C1015.74 500.77 1026.19 491.73 1032.21 487.67C1049.72 475.83 1067.37 464.16 1084.98 452.48C1092.22 447.68 1103.94 442.89 1103.55 432.62C1103.19 422.8 1091.08 418.25 1084.13 413.39C1066.24 400.9 1048.19 388.52 1029.96 376.52C1023.33 372.15 1015.16 363.95 1006.64 365.31ZM277.77 387.48C284.19 387.21 290.73 388.43 296.7 390.76C302.09 392.88 307.12 396.22 311.42 400.08C343.04 428.44 321.73 480.24 280.5 481.94C249.68 483.21 226.39 452.91 233.22 423.56C236.35 410.13 245.86 399.72 257.48 393C263.59 389.46 270.73 387.78 277.77 387.48ZM763.71 402.49C760.37 402.52 756.79 402.16 753.5 402.79C740.33 405.33 744.19 423 744.04 432.5C743.94 438.96 742.18 448.58 746.49 453.99C752 460.9 768.31 458.29 776.5 458.23C781.99 458.2 789.19 459.51 794.1 456.59C797.43 454.61 799.05 451.27 799.41 447.5C800.36 437.43 799.72 426.62 799.39 416.5C799.24 411.93 798.81 407.57 794.83 404.65C789.65 400.87 770.66 402.44 763.71 402.49ZM726.98 434.5C728 432.45 728.21 430.85 728.27 428.5C728.34 425.64 728.87 421.76 727.2 419.28C724.89 415.84 720.06 416.21 716.5 416.16C707.83 416.05 699.17 416.21 690.5 416.18C644.83 416.04 599.17 416.23 553.5 416.16C544.17 416.14 534.83 416.2 525.5 416.19C521.23 416.19 516.76 415.74 512.52 416.18C507.64 416.7 503.28 420.49 502.99 425.5C502.67 431.2 506.63 435.64 512.24 436.45C516.18 437.02 520.53 436.51 524.5 436.5C533.83 436.5 543.17 436.39 552.5 436.39C593.83 436.38 635.17 436.47 676.5 436.47C687.5 436.46 698.5 436.47 709.5 436.47C715.28 436.46 721.75 437.28 726.98 434.5ZM816.02 433.5C820.27 437.07 825.2 436.45 830.5 436.42C838.44 436.38 855.64 437.78 862.46 436.03C867.46 434.74 869.95 429.27 869.25 424.5C867.67 413.85 854.13 416.21 846.5 416.18C839.18 416.16 831.81 415.86 824.5 416.15C821.45 416.28 817.33 417.36 816.11 420.66C814.76 424.31 815.53 429.74 816.02 433.5ZM637.61 468.21C625.48 471.09 629 487.5 628.96 496.5C628.92 503.35 626.89 513.26 631.55 518.94C635.2 523.4 640.22 523.13 645.5 523.13C652.83 523.13 660.17 523.12 667.5 523.12C672.03 523.12 676.31 523.53 680.05 520.54C686.62 515.3 684.18 503.91 684.14 496.5C684.11 490.14 685.9 478.37 682.44 473.06C681.06 470.94 678.72 469.02 676.26 468.32C670.23 466.61 655.45 467.86 648.5 467.85C644.98 467.84 641.05 467.39 637.61 468.21ZM439.7 476.44C476.27 473.58 489.38 524.83 456.58 541.1C452.52 543.12 448.05 544.6 443.5 544.87C439.16 545.14 434.62 544.36 430.54 542.91C425.87 541.25 421.57 538.96 418 535.49C396.11 514.19 409.53 478.79 439.7 476.44ZM611.93 499.5C613.86 494.3 614.67 484.71 608.17 482.41C602.52 480.41 594.46 481.58 588.5 481.58C574.83 481.59 561.17 481.75 547.5 481.63C540.31 481.57 529.73 480.85 528.83 490.5C527.81 501.54 537.45 501.79 545.5 501.82C559.83 501.87 574.17 501.87 588.5 501.87C596.48 501.88 604.56 502.86 611.93 499.5ZM706.68 482.23C697.87 485.02 698.53 499.93 707.73 501.62C712.12 502.42 717.05 501.83 721.5 501.85C731.5 501.88 741.5 501.82 751.5 501.83C781.5 501.85 811.5 501.9 841.5 501.83C849.93 501.81 865.55 503.15 873.14 501.55C877.83 500.56 881.3 496.27 881.37 491.5C881.43 486.85 878 482.91 873.49 481.96C865.47 480.28 851.17 481.62 842.5 481.63C811.5 481.67 780.5 481.67 749.5 481.68C740.17 481.68 730.83 481.74 721.5 481.64C716.8 481.6 711.22 480.8 706.68 482.23ZM275.76 558.44C296.83 556.39 315.12 575.66 312.92 596.5C311.26 612.35 297.11 625.35 281.5 626.88C276.73 627.35 271.95 626.75 267.45 625.12C232.35 612.42 238.71 562.03 275.76 558.44Z" fill="#fefdfd" fill-rule="evenodd" stroke="#fefdfd" stroke-width="0.25" stroke-linejoin="round"/>
<path d="M294.1 335.78C294.1 343.19 294.1 350.6 294.1 358.01C312.25 363.54 322.58 368.47 336.5 381.62C351.57 372.25 366.65 362.87 381.72 353.5C381.99 347.88 380.3 342.22 380.36 336.5C380.52 323.86 384.77 310.9 392.04 300.57C419.69 261.29 476.89 264.5 499.65 306.81C520.55 345.64 492.76 393.98 450.45 399.73C429.41 402.6 409.63 393.73 395.5 378.59C381.09 387.56 366.68 396.53 352.28 405.5C353.01 412.29 355.95 419.09 356.7 426.53C357.59 435.44 356.14 443.72 355.17 452.5C366.95 458.75 378.72 465 390.5 471.25C395.62 467 399.72 461.7 405.23 457.7C416.19 449.74 431 445.46 444.5 446.14C488.47 448.34 518.33 495.12 500.37 535.84C481.36 578.95 424.88 588.06 393.17 553.3C383.11 542.27 377.52 527.34 377.21 512.5C377.11 507.45 378.07 502.51 378.18 497.5C366.62 491.54 355.06 485.57 343.5 479.61C337.21 485.98 331.86 492.72 324.43 497.97C314.86 504.72 304.43 507.71 293.56 511.5C293.56 517.5 293.56 523.5 293.56 529.5C297.62 531.41 302.07 532.39 306.1 534.43C320.64 541.77 332.54 553.57 338.59 568.86C355.27 611.05 323.56 657.01 278.5 657.05C231.95 657.09 200.03 608.94 219.65 566.18C225.47 553.48 235.43 542.88 247.63 536.11C252.53 533.39 258.58 532.52 263.13 529.5C263.13 523.29 263.13 517.09 263.13 510.88C211.67 499.25 184.83 442.04 212.27 395.75C220.34 382.15 232.31 370.91 246.63 364.12C252.16 361.5 258.13 360.25 263.76 357.97C263.76 350.47 263.76 342.97 263.76 335.47C260.24 334.03 256.58 333.03 253.14 331.39C237.58 324 224.97 310.62 219.33 294.23C204.98 252.49 238.4 206.94 282.5 208.17C326.97 209.41 357.6 254.47 340.8 296.32C334.43 312.2 321.55 324.56 306.18 331.63C302.28 333.42 298.11 334.34 294.1 335.78ZM277.79 238.46C241.86 242.29 233.83 292.06 268.54 304.93C273.24 306.68 278.52 307.21 283.5 306.81C288.42 306.42 292.76 304.91 297.06 302.55C329.27 284.88 314.33 234.56 277.79 238.46ZM1086.44 325.5C1077.96 321.05 1068.88 318.69 1059.52 316.86C1007.46 306.73 951.98 336.7 930.32 384.77C919.45 408.88 915.9 435.59 922.12 461.46C924.1 469.71 926.94 477.45 930.37 485.19C932.12 489.12 934.95 492.96 934.7 497.46C934.07 508.39 920.43 513.46 912.88 505.62C908.49 501.05 905.03 490.68 902.78 484.67C894.54 462.66 891.93 439.82 894.75 416.49C903.23 346.1 965.91 290.53 1036.5 289.05C1058.39 288.6 1079.76 293.74 1099.5 302.99C1099.76 299.53 1099.58 296.12 1101.52 293.01C1105.96 285.89 1115.61 285.34 1121.36 291.13C1124.4 294.19 1125.18 298.82 1126.78 302.7C1130.12 310.83 1133.07 319.12 1136.2 327.34C1138.27 332.79 1139.99 338.6 1136.43 343.91C1132.72 349.45 1126.52 349.65 1120.5 349.65C1112.17 349.65 1103.83 349.68 1095.5 349.67C1091.15 349.66 1086.23 350.35 1082.2 348.34C1075.7 345.07 1074.09 335.72 1078.86 330.34C1080.91 328.03 1083.73 326.86 1086.44 325.5ZM437.72 303.35C403.25 310.39 400.03 359.38 434.52 369C438.73 370.17 443.15 370.38 447.47 369.8C483.43 364.96 486.78 313.35 451.7 303.68C447.26 302.46 442.23 302.43 437.72 303.35ZM973.5 560.56C972.79 564.16 973.07 568.07 970.94 571.4C966.93 577.68 957.22 578.71 951.87 573.63C948.49 570.43 947.3 564.96 945.73 560.71C942.67 552.44 939.32 544.26 936.56 535.89C934.7 530.24 932.59 525.2 936.06 519.6C939.75 513.63 946.25 513.59 952.5 513.62C960.16 513.65 967.83 513.6 975.5 513.61C979.84 513.61 984.85 512.84 988.95 514.55C995.97 517.48 998.05 527.05 993.36 532.85C991.49 535.15 988.7 536 986.27 537.5C1047.87 570.5 1122.25 540.37 1149.4 477.87C1160.74 451.76 1160.42 423.76 1152.59 396.83C1150.62 390.04 1147.5 383.48 1144.37 377.15C1142.46 373.29 1139.61 369.93 1139.44 365.44C1139 353.92 1153.41 347.5 1161.55 355.93C1168.34 362.97 1176.71 384.6 1179.37 394.23C1192.42 441.4 1181.72 489.94 1149.29 526.79C1104.66 577.53 1033.88 591.65 973.5 560.56ZM277.77 387.48C270.73 387.78 263.59 389.46 257.48 393C245.86 399.72 236.35 410.13 233.22 423.56C226.39 452.91 249.68 483.21 280.5 481.94C321.73 480.24 343.04 428.44 311.42 400.08C307.12 396.22 302.09 392.88 296.7 390.76C290.73 388.43 284.19 387.21 277.77 387.48ZM439.7 476.44C409.53 478.79 396.11 514.19 418 535.49C421.57 538.96 425.87 541.25 430.54 542.91C434.62 544.36 439.16 545.14 443.5 544.87C448.05 544.6 452.52 543.12 456.58 541.1C489.38 524.83 476.27 473.58 439.7 476.44ZM275.76 558.44C238.71 562.03 232.35 612.42 267.45 625.12C271.95 626.75 276.73 627.35 281.5 626.88C297.11 625.35 311.26 612.35 312.92 596.5C315.12 575.66 296.83 556.39 275.76 558.44Z" fill="#031b38" fill-rule="evenodd" stroke="#031b38" stroke-width="0.25" stroke-linejoin="round"/>
<path d="M685.69 328.29C692.82 326.65 706.61 328.1 714.5 328.04C718.94 328.01 723.6 327.36 727.45 330.03C732.22 333.33 732.5 338.17 732.61 343.5C732.78 351.83 732.57 360.17 732.51 368.5C732.47 373.62 732.51 378.13 728.15 381.62C724.47 384.58 719.94 384.07 715.5 384.12C708.17 384.18 700.83 384.1 693.5 384.09C688.06 384.08 682.6 384.3 679.01 379.47C675.23 374.38 676.76 362.77 676.82 356.5C676.91 347.38 673.4 331.11 685.69 328.29ZM540.64 351.5C551.54 350.95 562.59 351.52 573.5 351.55C593.5 351.59 613.5 351.5 633.5 351.48C639.8 351.48 646.22 351.19 652.5 351.55C655.25 351.7 658.96 352.28 660.41 355.08C661.72 357.61 661.49 362.71 661.12 365.5C660.68 368.76 657.61 370.71 654.5 371.25C647.56 372.46 639.55 371.39 632.5 371.38C611.17 371.36 589.83 371.41 568.5 371.4C560.47 371.39 544.62 372.68 537.51 371.11C525.54 368.46 528.47 352.1 540.64 351.5ZM760.75 351.49C793.29 350.8 825.95 351.38 858.5 351.48C867.88 351.51 888.66 347.74 887.83 362.5C887.13 374.92 865.89 371.47 857.5 371.41C833.17 371.22 808.83 371.56 784.5 371.38C777.65 371.33 759.05 372.62 753.61 370.87C747.95 369.06 747.37 359.13 750.44 354.95C752.88 351.63 757 351.57 760.75 351.49ZM1006.64 365.31C1015.16 363.95 1023.33 372.15 1029.96 376.52C1048.19 388.52 1066.24 400.9 1084.13 413.39C1091.08 418.25 1103.19 422.8 1103.55 432.62C1103.94 442.89 1092.22 447.68 1084.98 452.48C1067.37 464.16 1049.72 475.83 1032.21 487.67C1026.19 491.73 1015.74 500.77 1008.5 500.71C994.2 500.59 996.26 485.28 996.26 475.5C996.24 448.5 996.27 421.5 996.3 394.5C996.31 384.75 993.06 367.48 1006.64 365.31ZM763.71 402.49C770.66 402.44 789.65 400.87 794.83 404.65C798.81 407.57 799.24 411.93 799.39 416.5C799.72 426.62 800.36 437.43 799.41 447.5C799.05 451.27 797.43 454.61 794.1 456.59C789.19 459.51 781.99 458.2 776.5 458.23C768.31 458.29 752 460.9 746.49 453.99C742.18 448.58 743.94 438.96 744.04 432.5C744.19 423 740.33 405.33 753.5 402.79C756.79 402.16 760.37 402.52 763.71 402.49ZM726.98 434.5C721.75 437.28 715.28 436.46 709.5 436.47C698.5 436.47 687.5 436.46 676.5 436.47C635.17 436.47 593.83 436.38 552.5 436.39C543.17 436.39 533.83 436.5 524.5 436.5C520.53 436.51 516.18 437.02 512.24 436.45C506.63 435.64 502.67 431.2 502.99 425.5C503.28 420.49 507.64 416.7 512.52 416.18C516.76 415.74 521.23 416.19 525.5 416.19C534.83 416.2 544.17 416.14 553.5 416.16C599.17 416.23 644.83 416.04 690.5 416.18C699.17 416.21 707.83 416.05 716.5 416.16C720.06 416.21 724.89 415.84 727.2 419.28C728.87 421.76 728.34 425.64 728.27 428.5C728.21 430.85 728 432.45 726.98 434.5ZM816.02 433.5C815.53 429.74 814.76 424.31 816.11 420.66C817.33 417.36 821.45 416.28 824.5 416.15C831.81 415.86 839.18 416.16 846.5 416.18C854.13 416.21 867.67 413.85 869.25 424.5C869.95 429.27 867.46 434.74 862.46 436.03C855.64 437.78 838.44 436.38 830.5 436.42C825.2 436.45 820.27 437.07 816.02 433.5ZM637.61 468.21C641.05 467.39 644.98 467.84 648.5 467.85C655.45 467.86 670.23 466.61 676.26 468.32C678.72 469.02 681.06 470.94 682.44 473.06C685.9 478.37 684.11 490.14 684.14 496.5C684.18 503.91 686.62 515.3 680.05 520.54C676.31 523.53 672.03 523.12 667.5 523.12C660.17 523.12 652.83 523.13 645.5 523.13C640.22 523.13 635.2 523.4 631.55 518.94C626.89 513.26 628.92 503.35 628.96 496.5C629 487.5 625.48 471.09 637.61 468.21ZM611.93 499.5C604.56 502.86 596.48 501.88 588.5 501.87C574.17 501.87 559.83 501.87 545.5 501.82C537.45 501.79 527.81 501.54 528.83 490.5C529.73 480.85 540.31 481.57 547.5 481.63C561.17 481.75 574.83 481.59 588.5 481.58C594.46 481.58 602.52 480.41 608.17 482.41C614.67 484.71 613.86 494.3 611.93 499.5ZM706.68 482.23C711.22 480.8 716.8 481.6 721.5 481.64C730.83 481.74 740.17 481.68 749.5 481.68C780.5 481.67 811.5 481.67 842.5 481.63C851.17 481.62 865.47 480.28 873.49 481.96C878 482.91 881.43 486.85 881.37 491.5C881.3 496.27 877.83 500.56 873.14 501.55C865.55 503.15 849.93 501.81 841.5 501.83C811.5 501.9 781.5 501.85 751.5 501.83C741.5 501.82 731.5 501.88 721.5 501.85C717.05 501.83 712.12 502.42 707.73 501.62C698.53 499.93 697.87 485.02 706.68 482.23Z" fill="#0577fd" fill-rule="evenodd" stroke="#0577fd" stroke-width="0.25" stroke-linejoin="round"/>
</svg>